<svg width="196" height="58" viewBox="0 0 196 58" fill="none" xmlns="http://www.w3.org/2000/svg">
<g clip-path="url(#clip0)">
<path d="M32.8588 2.45338H9.39508C3.15117 2.45338 0 5.51836 0 11.5893V44.081C0 44.8768 0.422677 45.3668 1.33332 45.3668H8.42606C9.27482 45.3668 9.82123 44.8768 9.82123 44.081V42.8474C9.82123 39.838 11.0755 38.1977 14.1923 37.8815H32.8588C39.7076 37.8815 42.8003 34.8791 42.8003 28.3182V12.0167C42.8003 5.45583 39.7076 2.45338 32.8588 2.45338ZM32.9894 25.559C32.9894 29.1175 32.1921 29.8507 28.0066 29.8507H18.0651C13.883 29.8507 11.213 31.2615 9.81779 34.0207V13.9801C9.81779 11.2209 10.4844 10.4842 13.8177 10.4842H28.0066C32.1921 10.4842 32.9894 11.2209 32.9894 14.7759V25.559Z" fill="#7159C1"/>
<path d="M65.2915 20.4159C59.8965 20.4159 57.5906 23.1751 57.5906 27.8352V44.2026C57.5906 44.9394 57.2261 45.3668 56.3776 45.3668H49.9516C49.1025 45.3668 48.6798 44.9394 48.6798 44.2026V14.2859C48.6798 13.5492 49.1025 13.1183 49.9516 13.1183H55.3465C56.1368 13.1183 56.5596 13.5492 56.5596 14.2859V19.1128C57.5906 15.1304 60.5631 13.1044 65.8379 13.1044H68.0201C68.8068 13.1044 69.2296 13.5353 69.2296 14.272V19.2518C69.2296 20.0476 68.8068 20.4159 68.0201 20.4159H65.2915Z" fill="#7159C1"/>
<path d="M107.119 36.5992C107.119 42.6701 104.453 45.3668 98.0885 45.3668H82.3259C76.02 45.3668 73.2914 42.6701 73.2914 36.5992V21.8928C73.2914 15.8254 76.02 13.1253 82.3259 13.1253H98.0885C104.453 13.1253 107.119 15.8254 107.119 21.8928V36.5992ZM98.2087 24.2176C98.2087 21.0275 97.6039 20.4159 93.8447 20.4159H86.6279C82.8105 20.4159 82.2021 21.0275 82.2021 24.2176V34.271C82.2021 37.4576 82.8105 38.0727 86.6279 38.0727H93.8447C97.6039 38.0727 98.2087 37.4576 98.2087 34.271V24.2176Z" fill="#7159C1"/>
<path d="M116.092 20.4159H113.057C112.267 20.4159 111.844 20.0476 111.844 19.2518V14.2859C111.844 13.5492 112.267 13.1183 113.057 13.1183H116.088V9.13591C116.092 3.06499 119.243 0 125.487 0H132.944C133.793 0 134.157 0.430906 134.157 1.16414V6.13001C134.157 6.92926 133.793 7.29412 132.944 7.29412H129.005C125.669 7.29412 125.002 8.03085 125.002 10.79V13.1183H132.944C133.793 13.1183 134.157 13.5492 134.157 14.2859V19.2518C134.157 20.0476 133.793 20.4159 132.944 20.4159H125.002V44.2026C125.002 44.9394 124.58 45.3668 123.731 45.3668H117.305C116.456 45.3668 116.092 44.9394 116.092 44.2026V20.4159Z" fill="#7159C1"/>
<path d="M140.827 20.4159H137.799C137.013 20.4159 136.59 20.0476 136.59 19.2518V14.2859C136.59 13.5492 137.013 13.1183 137.799 13.1183H140.834V9.13591C140.827 3.06499 143.985 0 150.222 0H157.679C158.528 0 158.892 0.430906 158.892 1.16414V6.13001C158.892 6.92926 158.528 7.29412 157.679 7.29412H153.738C150.404 7.29412 149.738 8.03085 149.738 10.79V13.1183H157.679C158.528 13.1183 158.892 13.5492 158.892 14.2859V19.2518C158.892 20.0476 158.528 20.4159 157.679 20.4159H149.738V44.2026C149.738 44.9394 149.311 45.3668 148.463 45.3668H142.036C141.188 45.3668 140.827 44.9394 140.827 44.2026V20.4159Z" fill="#7159C1"/>
<path d="M185.988 57.8735H172.772C166.833 57.8735 164.287 55.5453 164.287 49.78V49.1685C164.27 49.0041 164.289 48.8374 164.344 48.6816C164.398 48.5255 164.487 48.3839 164.603 48.2674C164.719 48.151 164.86 48.0624 165.015 48.0085C165.17 47.9546 165.334 47.9363 165.497 47.9555H171.682C172.531 47.9555 172.954 48.3866 172.954 49.1822V49.4882C172.954 50.7148 173.624 51.2049 174.957 51.2049H182.596C186.232 51.2049 187.143 50.2874 187.143 47.1599V37.4888C185.747 40.248 183.081 41.6589 178.895 41.6589H172.71C166.404 41.6589 163.613 38.9623 163.613 32.8913V14.2859C163.605 14.1253 163.632 13.9647 163.691 13.8153C163.749 13.6658 163.84 13.531 163.955 13.4201C164.07 13.3092 164.207 13.2248 164.358 13.1727C164.509 13.1206 164.668 13.1021 164.827 13.1183H171.315C172.102 13.1183 172.528 13.5492 172.528 14.2859V30.5804C172.528 33.7671 173.194 34.3821 176.954 34.3821H181.562C185.562 34.3821 187.139 32.7246 187.139 29.3538V14.2859C187.139 13.5492 187.562 13.1183 188.352 13.1183H194.843C194.999 13.1032 195.155 13.123 195.302 13.1764C195.449 13.2297 195.582 13.3153 195.692 13.427C195.802 13.5386 195.887 13.6736 195.939 13.8221C195.991 13.9706 196.01 14.129 195.995 14.2859V48.1258C195.991 54.5584 192.596 57.8735 185.988 57.8735Z" fill="#7159C1"/>
</g>
<defs>
<clipPath id="clip0">
<rect width="196" height="58" fill="white"/>
</clipPath>
</defs>
</svg>
